<?xml version="1.0" encoding="UTF-8"?>
<svg width="32px" height="20px" viewBox="0 0 32 20" version="1.1" xmlns="http://www.w3.org/2000/svg" xmlns:xlink="http://www.w3.org/1999/xlink">
    <title>Group</title>
    <g id="Dark-mode" stroke="none" stroke-width="1" fill="none" fill-rule="evenodd">
        <g id="Artboard" transform="translate(-25.000000, -31.000000)" stroke="#FFFFFF" stroke-width="1.30718954">
            <g id="Group" transform="translate(25.000000, 31.000000)">
                <path d="M22.0588196,1.30718954 C22.2929968,1.30718954 22.5271741,1.39652516 22.7058454,1.57519641 L22.7058454,1.57519641 L30.4701551,9.33950616 C30.6488264,9.51817741 30.738162,9.75235469 30.738162,9.98653198 C30.738162,10.2207093 30.6488264,10.4548865 30.4701551,10.6335578 L30.4701551,10.6335578 L22.7058454,18.3978675 C22.5271741,18.5765388 22.2929968,18.6658744 22.0588196,18.6658744 C21.8246423,18.6658744 21.590465,18.5765388 21.4117979,18.3978717 L21.4117979,18.3978717 L17.9831457,14.9691581 L21.3944777,11.5578804 C21.8235547,11.1288034 22.0404759,10.567915 22.0452704,10.0055613 C22.0500738,9.44216295 21.8418756,8.87733923 21.4132469,8.43426859 L21.4132469,8.43426859 L17.9831269,5.00387399 L21.4117937,1.57519641 C21.590465,1.39652516 21.8246423,1.30718954 22.0588196,1.30718954 Z" id="Path"></path>
                <rect id="Rectangle-Copy-2" transform="translate(10.000000, 9.986532) rotate(45.000000) translate(-10.000000, -9.986532) " x="3.59477124" y="3.58130322" width="12.8104575" height="12.8104575" rx="1.56862745"></rect>
            </g>
        </g>
    </g>
</svg>