<?xml version="1.0" encoding="UTF-8"?>
<svg width="51px" height="51px" viewBox="0 0 51 51" version="1.1" xmlns="http://www.w3.org/2000/svg" xmlns:xlink="http://www.w3.org/1999/xlink">
    <title>copy</title>
    <g id="icons" stroke="none" stroke-width="1" fill="none" fill-rule="evenodd">
        <g id="copy" transform="translate(2.000000, 1.000000)" stroke="#0B1823" stroke-width="3">
            <path d="M31.62,38 L31.62,42.05 C31.6089986,45.2912455 28.9812595,47.9145157 25.74,47.92 L6.15,47.92 C2.91264507,47.9090258 0.290974179,45.2873549 0.28,42.05 L0.28,22.46 C0.290974179,19.2226451 2.91264507,16.6009742 6.15,16.59 L10.6,16.59" id="Path" stroke-linecap="round"></path>
            <path d="M41.42,32.26 L21.83,32.26 C18.6043916,32.2271442 16.0053094,29.6057714 16,26.38 L16,6.79 C16.0109743,3.54712225 18.6371223,0.9209743 21.88,0.91 L41.42,0.91 C44.6628777,0.9209743 47.2890257,3.54712225 47.3,6.79 L47.3,26.38 C47.2890257,29.6228777 44.6628777,32.2490257 41.42,32.26 L41.42,32.26 Z" id="Path"></path>
        </g>
    </g>
</svg>