<svg xmlns="http://www.w3.org/2000/svg" width="16" height="16" viewBox="0 0 16 16">
  <path id="Path_11" data-name="Path 11" d="M2.925,0H13.074A2.934,2.934,0,0,1,16,2.926v1.3a2.919,2.919,0,0,1-.86,2.066h0a2.914,2.914,0,0,1-2.065.86H2.925A2.934,2.934,0,0,1,0,4.223v-1.3A2.913,2.913,0,0,1,.859.862v0A2.917,2.917,0,0,1,2.925,0ZM13.074,1.248H2.925a1.674,1.674,0,0,0-1.183.494l0,0a1.679,1.679,0,0,0-.492,1.186v1.3A1.685,1.685,0,0,0,2.925,5.9H13.074a1.674,1.674,0,0,0,1.185-.492l0,0a1.667,1.667,0,0,0,.494-1.183v-1.3a1.686,1.686,0,0,0-1.677-1.679Zm-1.3,6.864h1.3a2.914,2.914,0,0,1,2.063.861h0l0,0A2.917,2.917,0,0,1,16,11.039v2.035a2.92,2.92,0,0,1-.86,2.066h0a2.917,2.917,0,0,1-2.063.86h-1.3a2.923,2.923,0,0,1-2.066-.86v0a2.913,2.913,0,0,1-.859-2.063V11.039a2.914,2.914,0,0,1,.859-2.065v0a2.917,2.917,0,0,1,2.066-.859Zm1.3,1.25h-1.3a1.672,1.672,0,0,0-1.183.492h0a1.673,1.673,0,0,0-.492,1.185v2.035a1.674,1.674,0,0,0,.492,1.185v0a1.672,1.672,0,0,0,1.183.494h1.3a1.677,1.677,0,0,0,1.185-.492l0,0a1.672,1.672,0,0,0,.494-1.183V11.039a1.672,1.672,0,0,0-.491-1.183l0,0a1.668,1.668,0,0,0-1.183-.491ZM2.925,8.113H4.961a2.932,2.932,0,0,1,2.925,2.926v2.035a2.913,2.913,0,0,1-.859,2.063l0,0A2.917,2.917,0,0,1,4.961,16H2.925a2.917,2.917,0,0,1-2.063-.86h0A2.917,2.917,0,0,1,0,13.074V11.039A2.914,2.914,0,0,1,.859,8.974v0a2.917,2.917,0,0,1,2.066-.859Zm2.036,1.25H2.925a1.675,1.675,0,0,0-1.183.492h0a1.673,1.673,0,0,0-.492,1.185v2.035a1.671,1.671,0,0,0,.494,1.183v0a1.671,1.671,0,0,0,1.183.492H4.961a1.683,1.683,0,0,0,1.677-1.677V11.039A1.684,1.684,0,0,0,4.961,9.362Z" fill-rule="evenodd"/>
</svg>
