<?xml version="1.0" encoding="UTF-8"?>
<svg width="52px" height="42px" viewBox="0 0 52 42" version="1.1" xmlns="http://www.w3.org/2000/svg" xmlns:xlink="http://www.w3.org/1999/xlink">
    <title>defi</title>
    <g id="icons" stroke="none" stroke-width="1" fill="none" fill-rule="evenodd" stroke-linecap="round" stroke-linejoin="round">
        <g id="defi" transform="translate(2.000000, 2.000000)" stroke="#0B1823" stroke-width="3">
            <path d="M43.7391304,29.826087 C46.0923437,29.826087 48,31.7337432 48,34.0869565 C48,36.4401698 46.0923437,38.3478261 43.7391304,38.3478261 C41.3859172,38.3478261 39.4782609,36.4401698 39.4782609,34.0869565 C39.4782609,31.7337432 41.3859172,29.826087 43.7391304,29.826087 Z M24.5652174,15.9782609 C28.6833406,15.9782609 32.0217391,19.3166594 32.0217391,23.4347826 C32.0217391,27.5529059 28.6833406,30.8913043 24.5652174,30.8913043 C20.4470941,30.8913043 17.1086957,27.5529059 17.1086957,23.4347826 C17.1086957,19.3166594 20.4470941,15.9782609 24.5652174,15.9782609 Z M16.0434783,0 C18.3966915,0 20.3043478,1.90765628 20.3043478,4.26086957 C20.3043478,6.61408285 18.3966915,8.52173913 16.0434783,8.52173913 C13.690265,8.52173913 11.7826087,6.61408285 11.7826087,4.26086957 C11.7826087,1.90765628 13.690265,0 16.0434783,0 Z M21.3695652,15.9782609 L18.173913,8.52173913 M32.0217391,27.6956522 L39.4782609,32.4155463 M33.8622175,18.1540287 L39.1418764,13.8478261 M14.0313036,23.4347826 L10.1681386,23.4347826" id="Combined-Shape"></path>
            <path d="M47,9.5 C47,11.4329966 45.4329966,13 43.5,13 C41.5670034,13 40,11.4329966 40,9.5 C40,7.56700338 41.5670034,6 43.5,6 C45.4329966,6 47,7.56700338 47,9.5 L47,9.5 Z" id="Path-Copy-2"></path>
            <path d="M7,23.5 C7,25.4329966 5.43299662,27 3.5,27 C1.56700338,27 0,25.4329966 0,23.5 C0,21.5670034 1.56700338,20 3.5,20 C5.43299662,20 7,21.5670034 7,23.5 L7,23.5 Z" id="Path-Copy-3"></path>
        </g>
    </g>
</svg>