<svg xmlns="http://www.w3.org/2000/svg" width="512" height="512" viewBox="0 0 512 512"><path d="M0,0H512V512H0Z" fill="none"/><path d="M635.152,348.717c.326.392,10.956,2.757,30.375,18.125,19.19,15.188,19.19,24.375,19.19,33.262l.354,2.91-1.7-2.644a32.678,32.678,0,0,0-9.658-10.146c-6.808-4.5-14-6.036-33.06-7.04-17.21-.906-11.732-.593-20.562-1.155C607.737,381.245,634.124,347.483,635.152,348.717Z" transform="translate(-308.402 -174.342)" fill-rule="evenodd"/><path d="M376.462,265.112l.352-4.148,1.932.354a48.506,48.506,0,0,1,12.82,4.77c8.042,4.884,7.589,10.373,11.131,26.885,1.038,4.834,6.333,11.25,6.959,13.1,1.008,2.982,4.818,9.948,7.916,14.472,2.232,3.26.75,4.8-4.182,4.358-7.534-.68-17.738-7.722-24.32-16.784C380.578,296.434,375.324,278.51,376.462,265.112Z" transform="translate(-188.154 -130.482)" fill-rule="evenodd"/><path d="M609.248,469.788c-39.682-15.976-53.658-29.846-53.658-53.248a37.452,37.452,0,0,1,.264-6.258,30.005,30.005,0,0,1,3.412,2.526c8.044,6.452,17.056,9.21,42,12.85,14.678,2.138,22.936,3.87,30.558,6.4,24.22,8.03,39.206,24.334,42.78,46.534,1.036,6.454.43,18.552-1.254,24.926-1.33,5.038-5.388,14.116-6.462,14.464-.3.1-.592-1.048-.668-2.6-.408-8.336-4.62-16.456-11.694-22.536-8.048-6.912-18.856-12.416-45.282-23.054" transform="translate(-277.795 -205.141)" fill-rule="evenodd"/><path d="M522.557,531.153a70.7,70.7,0,0,0-1.916-8.4l-1.014-3.018,1.884,2.114a33.852,33.852,0,0,1,6.4,11.636c1.33,3.8,1.48,4.93,1.471,11.106-.011,6.06-.177,7.334-1.406,10.754a33.983,33.983,0,0,1-8.374,13.32c-7.248,7.378-16.568,11.462-30.016,13.156-2.338.294-9.152.79-15.142,1.1-15.1.784-25.032,2.406-33.958,5.54a7.12,7.12,0,0,1-2.546.608c-.362-.358,5.716-3.98,10.738-6.4,7.078-3.41,14.126-5.274,29.914-7.9,7.8-1.3,15.854-2.876,17.9-3.5,19.314-5.922,29.244-21.206,26.066-40.122" transform="translate(-218.962 -259.87)" fill-rule="evenodd"/><path d="M638.449,572.714c-5.272-11.334-6.48-22.276-3.594-32.482.308-1.09.806-1.984,1.1-1.984a10.733,10.733,0,0,1,2.768,1.5c2.428,1.634,7.3,4.39,20.282,11.468,16.2,8.832,25.434,15.67,31.718,23.484a51.049,51.049,0,0,1,10.54,24.14c.928,5.384.386,18.336-1,23.756-4.356,17.094-14.478,30.518-28.916,38.354a38.281,38.281,0,0,1-4.218,2.094c-.208,0,.562-1.956,1.71-4.356,4.858-10.154,5.41-20.03,1.738-31.022-2.248-6.73-6.832-14.944-16.088-28.824-10.76-16.138-13.4-20.432-16.048-26.124" transform="translate(-316.664 -269.124)" fill-rule="evenodd"/><path d="M341.086,704.861c14.726-12.434,33.048-21.266,49.738-23.978,7.192-1.168,19.176-.7,25.836,1,10.676,2.732,20.226,8.852,25.194,16.144,4.854,7.126,6.936,13.336,9.1,27.152.858,5.45,1.788,10.924,2.068,12.16,1.63,7.162,4.8,12.888,8.726,15.762,6.236,4.562,16.974,4.848,27.538.726a13.877,13.877,0,0,1,3.46-1.074c.382.382-4.938,3.942-8.69,5.816a29.514,29.514,0,0,1-14.4,3.5c-9.676,0-17.71-4.922-24.412-14.96a118.512,118.512,0,0,1-6.588-13.146c-7.076-16.144-10.574-21.06-18.79-26.44-7.152-4.684-16.374-5.524-23.312-2.12-9.114,4.468-11.656,16.114-5.128,23.5a20.241,20.241,0,0,0,11.388,5.954,12.158,12.158,0,0,0,13.76-12.182c0-4.852-1.864-7.618-6.56-9.738-6.41-2.892-13.3.488-13.27,6.512.014,2.568,1.134,4.182,3.708,5.346,1.652.748,1.69.808.342.528-5.882-1.22-7.26-8.314-2.53-13.02,5.678-5.652,17.422-3.158,21.454,4.556,1.694,3.24,1.89,9.694.414,13.592-3.306,8.72-12.944,13.308-22.722,10.814-6.656-1.7-9.368-3.54-17.394-11.808-13.944-14.368-19.358-17.15-39.466-20.29l-3.852-.6Z" transform="translate(-168.351 -340.118)" fill-rule="evenodd"/><path d="M189.7,361.6a8.3,8.3,0,0,0-2.552-10.936c-3.35-2.228-8.554-1.18-8.554,1.724,0,.886.488,1.53,1.594,2.1,1.858.956,1.994,2.032.53,4.23-1.48,2.228-1.36,4.184.338,5.514,2.738,2.144,6.614.966,8.644-2.63M128.28,77.266C174.854,133.794,246.658,221.8,250.224,226.732c2.944,4.068,1.836,7.726-3.206,10.592a30.58,30.58,0,0,1-11.456,3.21,14.678,14.678,0,0,1-9.62-4.114c-1.894-1.794-9.534-13.2-27.172-40.57-13.494-20.942-24.788-38.312-25.1-38.6-.712-.672-.7-.65,23.722,43.048,15.336,27.438,20.512,37.138,20.512,38.436,0,2.638-.72,4.026-3.976,7.656-5.426,6.054-7.852,12.856-9.6,26.934-1.962,15.78-7.482,26.926-22.78,46-8.954,11.168-10.42,13.216-12.678,17.716-2.846,5.67-3.628,8.844-3.946,16a49.8,49.8,0,0,0,2.63,19.692c2.024,6.334,4.136,10.518,9.538,18.884,4.662,7.22,7.346,12.584,7.346,14.684,0,1.67.318,1.672,7.542.04,17.286-3.9,31.322-10.768,39.216-19.182,4.886-5.208,6.032-8.082,6.07-15.22.024-4.666-.14-5.644-1.4-8.33-2.054-4.37-5.792-8-14.034-13.638-10.8-7.382-15.41-13.324-16.684-21.5-1.044-6.706.168-11.438,6.14-23.958,6.184-12.958,7.716-18.482,8.752-31.544.67-8.438,1.6-11.768,4.022-14.438,2.528-2.786,4.806-3.73,11.064-4.584,10.2-1.394,16.7-4.034,22.04-8.956,4.634-4.268,6.572-8.382,6.87-14.574l.226-4.694-2.59-3.018C252.292,211.778,122,68.672,121.424,68.672c-.124,0,2.962,3.866,6.856,8.594" transform="translate(-60.71 -34.336)" fill-rule="evenodd"/><path d="M420.012,449.221a2.271,2.271,0,0,1,1.952,0h0l5.658,3a.96.96,0,0,1,.55.712h.005V468a.938.938,0,0,1-.555.784h0l-5.658,3a2.271,2.271,0,0,1-1.952,0h0l-5.658-3a.929.929,0,0,1-.544-.784c0-.027,0-.051,0-.07v-15a.925.925,0,0,1,.544-.712h0Zm7.274,12.116-5.322,2.82a2.271,2.271,0,0,1-1.952,0h0l-5.311-2.813v6.625l5.311,2.8a2.541,2.541,0,0,0,.868.333l.108.006a2.238,2.238,0,0,0,.938-.313h0l5.361-2.85Zm-14.4,6.334a2.792,2.792,0,0,0,.2,1.224,1.557,1.557,0,0,0,.577.6l.017.011c.066.045.139.091.228.147l.1.064.322.195-.461.764-.359-.218-.061-.037c-.1-.064-.19-.12-.271-.174A2.593,2.593,0,0,1,412,467.711v-.04Zm7.651-10.372a.783.783,0,0,0-.114.049h0l-5.658,3-.017.009h0l0,0,.009.005.013.007,5.658,3a.844.844,0,0,0,.114.048Zm.893,0v6.118a.86.86,0,0,0,.114-.049h0l5.658-3,.017-.009h0l.005,0-.009-.005-.013-.007-5.658-3A.794.794,0,0,0,421.434,457.3Zm5.852-3.3-5.075,2.69,5.075,2.689Zm-12.585.007v5.366l5.063-2.682Zm6.847-4a1.4,1.4,0,0,0-1.121,0h0l-5.658,3-.017.009h0l0,0,.009,0,.013.007,5.658,3a1.4,1.4,0,0,0,1.121,0h0l5.658-3,.017-.009h0l.005,0-.009-.005-.013-.007Zm6.574.329.36.218.061.037c.1.065.19.12.27.174A2.594,2.594,0,0,1,430,453.3v.04h-.891a2.79,2.79,0,0,0-.2-1.224,1.557,1.557,0,0,0-.577-.6l-.017-.012c-.066-.045-.139-.092-.228-.147l-.1-.064-.322-.194Z" transform="translate(-206 -224.5)"/><g transform="translate(239.652 1.824) rotate(24)"><path d="M141.912,14.974a38.946,38.946,0,0,0-15.438,3.232,44.867,44.867,0,0,0-72.17,0A38.848,38.848,0,1,0,31.278,91.946v63.3a4.512,4.512,0,0,0,2.22,3.886C34.964,159.994,58.5,173.5,91.68,173.5a122.122,122.122,0,0,0,57.1-14.258,4.5,4.5,0,0,0,2.42-3.992V91.564a38.858,38.858,0,0,0-9.292-76.59Zm9.294,67.23V78.8a4.5,4.5,0,0,0-9.008,0v73.688c-48.12,23.782-91.73,5.11-101.912.044V92.646A38.748,38.748,0,0,0,59.768,86.62a4.5,4.5,0,0,0-4.842-7.6,29.878,29.878,0,1,1-5.294-53.016,44.7,44.7,0,0,0-4.278,19.028,4.5,4.5,0,0,0,9.006,0A35.763,35.763,0,0,1,59.736,26.2c.006-.012.022-.018.03-.034s0-.018.008-.032a36,36,0,1,1,53.418,46.784,4.5,4.5,0,0,0,5.7,6.972A44.838,44.838,0,0,0,131.148,26a29.847,29.847,0,1,1,20.058,56.2Z"/><path d="M43.43,6.75A59.5,59.5,0,0,1,6.81.642,4.5,4.5,0,0,0,2.186,8.37,67.287,67.287,0,0,0,34.33,16.51a63.955,63.955,0,0,0,10.6-.882,4.5,4.5,0,1,0-1.5-8.878Z" transform="translate(48.822 137.488)"/></g><path d="M9,32,18,0H0Z" transform="translate(133.07 364.044) rotate(-20)" fill="none" stroke="#000" stroke-width="8" fill-rule="evenodd"/><path d="M9,32,18,0H0Z" transform="translate(145.07 352.044) rotate(-20)" fill="none" stroke="#000" stroke-width="8" fill-rule="evenodd"/><path d="M424.6,458.924c2.652-3.779,1.492-7.865-3.017-10.627-8.592-5.262-21.579-.907-21.579,7.23,0,4.052,6.773,8.473,12.981,8.473,4.133,0,9.79-2.473,11.615-5.076m-17.268-14.476c-4.79,1.47-9.446,6.546-10.888,11.87-.878,3.248-.38,8.944.939,10.7,2.128,2.842,4.184,3.59,9.756,3.552,10.908-.076,20.392-4.754,21.494-10.6.9-4.794-3.262-11.438-9-14.354-2.96-1.5-9.256-2.1-12.3-1.166" transform="translate(-198 -222)" fill-rule="evenodd"/></svg>