<?xml version="1.0" encoding="UTF-8"?>
<svg width="43px" height="79px" viewBox="0 0 43 79" version="1.1" xmlns="http://www.w3.org/2000/svg" xmlns:xlink="http://www.w3.org/1999/xlink">
    <title>key</title>
    <g id="desktop_v1" stroke="none" stroke-width="1" fill="none" fill-rule="evenodd">
        <g id="main" transform="translate(-713.000000, -497.000000)" fill="#FFFFFF">
            <g id="access" transform="translate(655.000000, 410.000000)">
                <g id="key" transform="translate(58.000000, 86.000000)">
                    <g id="Group">
                        <path d="M21.1764706,79.2666875 C19.3963427,79.2711925 17.6926291,78.5383759 16.4647059,77.24 L10.1911765,70.6533333 C9.02086209,69.4278482 8.3663841,67.7938664 8.36470588,66.0933333 L8.36470588,56.36 C8.35653815,54.9554087 8.89872457,53.6042759 9.87352941,52.6 L12.3088235,49.9333333 L10.1911765,47.9866667 C9.00809826,46.9672748 8.33036591,45.4749727 8.33823529,43.9066667 L8.33823529,39.2933333 C4.12038522,36.0135873 1.28480312,31.25261 0.397058824,25.96 C0.271865282,25.1823143 0.494437727,24.3886617 1.00507121,23.7919392 C1.5157047,23.1952167 2.26212954,22.8565062 3.04411765,22.8666667 L3.04411765,22.8666667 C4.34694638,22.8475842 5.46980987,23.7864644 5.69117647,25.08 C6.43594759,29.4500471 8.94744312,33.312794 12.6264706,35.7466667 L13.8176471,36.5466667 L13.8176471,44.0666667 L15.9352941,45.96 C17.0760195,46.9207604 17.7631157,48.3204867 17.8285754,49.816921 C17.894035,51.3133553 17.3318236,52.7685437 16.2794118,53.8266667 L13.8441176,56.4933333 L13.8441176,66.2533333 C13.8403376,66.5806843 13.9638477,66.8965324 14.1882353,67.1333333 L20.4617647,73.72 C20.6965276,73.9677989 21.0217379,74.108001 21.3617647,74.108001 C21.7017915,74.108001 22.0270018,73.9677989 22.2617647,73.72 L28.5352941,67.1333333 C28.7596817,66.8965324 28.8831918,66.5806843 28.8794118,66.2533333 L28.8794118,36.4933333 L29.6735294,35.96 C33.255977,33.6840226 35.8263089,30.1009439 36.8470588,25.96 C38.8596797,18.2103127 34.8732283,10.1555514 27.518321,7.11096648 C20.1634138,4.06638158 11.7070152,6.9703895 7.72941176,13.9066667 C7.03866122,15.0201337 5.64612461,15.4613532 4.44705882,14.9466667 L4.44705882,14.9466667 C3.73041652,14.6624542 3.17218271,14.077903 2.91798157,13.3455025 C2.66378044,12.6131019 2.73882161,11.8054857 3.12352941,11.1333333 C6.17733743,6.09165275 11.189465,2.57071672 16.9411765,1.42666667 C26.6258428,-0.569123937 36.392786,4.4506093 40.4732917,13.5210281 C44.5537974,22.5914468 41.8621916,33.299243 33.9882353,39.32 L33.9882353,65.9866667 C33.9865571,67.6871998 33.3320791,69.3211815 32.1617647,70.5466667 L25.8882353,77.1333333 C24.6786796,78.471099 22.9725485,79.2435795 21.1764706,79.2666875 Z" id="Path" fill-rule="nonzero" transform="translate(21.363083, 40.129294) rotate(180.000000) translate(-21.363083, -40.129294) "></path>
                        <circle id="Oval" fill-rule="nonzero" transform="translate(21.176471, 17.506667) rotate(180.000000) translate(-21.176471, -17.506667) " cx="21.1764706" cy="17.5066667" r="4"></circle>
                    </g>
                </g>
            </g>
        </g>
    </g>
</svg>