<svg xmlns="http://www.w3.org/2000/svg" width="45px" height="54px" viewBox="0 0 45 54"><path fill="#ffb448" d="M40.48,51.05H10.92A4.44,4.44,0,0,1,6.4,46.7V4.35A4.44,4.44,0,0,1,10.92,0h22.3L45,11.58V46.7A4.44,4.44,0,0,1,40.48,51.05Z"></path><g fill="#2b3954"><path d="M27.23,3H5.41A5.42,5.42,0,0,0,0,8.42V48.59A5.42,5.42,0,0,0,5.41,54h27a5.41,5.41,0,0,0,5.41-5.41V13.78Zm8,11.82v1.52H25.12V5.59h1ZM32.37,51.42h-27a2.83,2.83,0,0,1-2.83-2.83V8.42A2.83,2.83,0,0,1,5.41,5.59H22.54v12a1.29,1.29,0,0,0,1.29,1.29H35.21V48.59A2.84,2.84,0,0,1,32.37,51.42Z"></path><rect x="11.51" y="32.33" width="19.31" height="2.3" transform="translate(-16.73 45) rotate(-74.6)"></rect><polygon points="15.54 39.14 8.48 33.52 15.54 27.83 16.99 29.62 12.17 33.51 16.98 37.33 15.54 39.14"></polygon><polygon points="26.72 39.14 25.28 37.33 30.09 33.51 25.28 29.62 26.72 27.83 33.78 33.52 26.72 39.14"></polygon></g></svg>