<svg xmlns="http://www.w3.org/2000/svg" width="15.852" height="16" viewBox="0 0 15.852 16">
  <g id="Group_14" data-name="Group 14" transform="translate(-0.158 0.002)">
    <path id="Path_14" data-name="Path 14" d="M4.3,2.946V1.3A1.255,1.255,0,0,1,4.932.207,1.367,1.367,0,0,1,5.653,0h5.536A1.3,1.3,0,0,1,12.54,1.371v4.8h.619a1.308,1.308,0,0,1,1.388,1.383V13.02a1.3,1.3,0,0,1-1.377,1.393H10.185a.438.438,0,0,0-.272.107c-.454.384-.9.779-1.34,1.169-.032.027-.059.064-.091.075a.491.491,0,0,1-.256.032.288.288,0,0,1-.133-.219v-.972c0-.165-.048-.2-.208-.2a2.611,2.611,0,0,1-.534,0,1.276,1.276,0,0,1-1.03-1.244q0-.886,0-1.778c0-.149-.048-.182-.187-.182H1.569a1.3,1.3,0,0,1-1.356-.956,1.516,1.516,0,0,1-.053-.406q0-2.771,0-5.536A1.313,1.313,0,0,1,1.515,2.946Zm4.271,12.1a2.05,2.05,0,0,0,.16-.133c.32-.278.641-.534.956-.838a.534.534,0,0,1,.384-.144h3.112a.833.833,0,0,0,.892-.9v-5.5a.822.822,0,0,0-.87-.881H7.655a.817.817,0,0,0-.87.849c0,1.858,0,3.737,0,5.568a.828.828,0,0,0,.865.86h.593c.246,0,.315.069.315.315Zm-3.79-12.1H7A1.34,1.34,0,0,1,8.4,4.345V6.165h1.57a.534.534,0,0,0,0-.064V2.738A.534.534,0,0,0,9.4,2.2H6.582c-.187,0-.288-.107-.267-.272s.112-.208.32-.208H9.352A1.068,1.068,0,0,1,10.474,2.85c-.027,1.068,0,2.087,0,3.128v.214h1.6v-4.8A.822.822,0,0,0,11.189.5H5.658a.828.828,0,0,0-.876.865c0,.283,0,.566,0,.854ZM4.008,5.338H2a.625.625,0,0,0-.2,0,.224.224,0,0,0-.166.251.235.235,0,0,0,.224.23H5.343A4.693,4.693,0,0,1,4.206,7.778l-.731-.961a.246.246,0,0,0-.342-.085.251.251,0,0,0-.085.358,1.468,1.468,0,0,0,.1.149l.7.886c-.053.048-.112.1-.176.149a6.268,6.268,0,0,1-1.6.918c-.187.075-.256.208-.192.358s.208.182.39.107A6.625,6.625,0,0,0,4.121,8.541c.1-.085.155-.075.246,0a6.551,6.551,0,0,0,1.58.993c.112.053.23.1.374.155a2.381,2.381,0,0,1,0-.278c.032-.2-.048-.294-.235-.374a5.339,5.339,0,0,1-1.468-.945,5.184,5.184,0,0,0,1.265-2.28h.71c.2,0,.32-.1.32-.251s-.123-.251-.326-.251H4.516v-.6c0-.192-.091-.3-.246-.31s-.256.117-.262.31S4.008,5.092,4.008,5.338Z" transform="translate(0 0)"/>
    <path id="Path_15" data-name="Path 15" d="M24.02,22.662c-.117.112-.219.272-.358.326a.363.363,0,0,1-.486-.23c-.139-.331-.272-.662-.406-.993s-.24-.577-.347-.87a.272.272,0,0,0-.3-.2H19.178a.272.272,0,0,0-.294.2c-.23.587-.47,1.175-.715,1.756-.128.315-.347.427-.587.326s-.3-.331-.176-.63l2.819-6.94c.08-.2.187-.352.432-.352s.342.155.422.352q1.409,3.486,2.824,6.94c.032.08.048.16.075.24ZM19.3,19.86h2.669l-1.345-3.3Z" transform="translate(-8.01 -7.021)"/>
  </g>
</svg>
