<svg xmlns="http://www.w3.org/2000/svg" width="16" height="16" viewBox="0 0 16 16">
  <path id="Path_13" data-name="Path 13" d="M9.8,16a.623.623,0,1,1,0-1.245h3.276a1.678,1.678,0,0,0,1.185-.491h0a1.668,1.668,0,0,0,.493-1.181V2.961a1.642,1.642,0,0,0-.489-1.17,1.726,1.726,0,0,0-1.2-.506L9.836,1.24A.62.62,0,1,1,9.851,0l3.23.045A2.976,2.976,0,0,1,15.146.91,2.885,2.885,0,0,1,16,2.961V13.082a2.907,2.907,0,0,1-.859,2.061h0A2.92,2.92,0,0,1,13.074,16H9.8Zm.486-8.419-.011-.011L7.78,5.083a.623.623,0,1,0-.883.88L8.337,7.4H.624a.623.623,0,1,0,0,1.246H8.336L6.9,10.079a.623.623,0,0,0,.883.881l2.494-2.487a.621.621,0,0,0,.011-.892Z" transform="translate(0 0)" fill-rule="evenodd"/>
</svg>
