<?xml version="1.0" encoding="UTF-8"?>
<svg width="48px" height="48px" viewBox="0 0 48 48" version="1.1" xmlns="http://www.w3.org/2000/svg" xmlns:xlink="http://www.w3.org/1999/xlink">
    <title>arrow</title>
    <g id="icons" stroke="none" stroke-width="1" fill="none" fill-rule="evenodd">
        <path d="M29.5537559,0.000115496529 L39.244125,0.135437635 C41.6602444,0.169097587 43.8543675,1.15495504 45.435375,2.73212193 C46.9465703,4.23928871 47.9104721,6.28600719 47.9940942,8.56104598 L47.9940942,8.56104598 L48,39.2457743 C48,41.6548399 47.0124491,43.8450311 45.423,45.4302437 C43.8969226,46.9440375 41.8282463,47.9101489 39.5455642,47.9940608 L39.5455642,47.9940608 L29.39625,48 C28.879125,48 28.4108437,47.7908403 28.0718437,47.452744 C27.7328437,47.1146477 27.523125,46.6476148 27.523125,46.1318683 C27.523125,45.6161219 27.7328437,45.149089 28.0718437,44.8109927 C28.3720276,44.5116091 28.7736453,44.3137926 29.220451,44.2719181 L29.220451,44.2719181 L39.222,44.2637367 C40.6068271,44.2637367 41.8654425,43.6989269 42.77775,42.7916714 C43.6283395,41.9367 44.1792819,40.7831799 44.2464309,39.5097703 L44.2464309,39.5097703 L44.253375,8.88293138 C44.253375,7.51410319 43.6916426,6.27654065 42.786375,5.37406027 C41.9215782,4.5115688 40.7523278,3.95136641 39.4658468,3.86757923 L39.4658468,3.86757923 L29.5095,3.72210081 C28.9944709,3.71611719 28.5306226,3.50230984 28.197018,3.16154059 C27.8633689,2.82072596 27.6599997,2.35291555 27.666,1.83900914 C27.6719993,1.32538098 27.8863551,0.862791677 28.2279558,0.530064231 C28.570261,0.196650626 29.0403832,-0.00553719162 29.5537559,0.000115496529 L29.5537559,0.000115496529 Z M22.0156406,14.7006935 C22.4399332,14.7006935 22.864069,14.843831 23.2096913,15.1292884 L23.2096913,15.1292884 L30.821625,22.7089756 C31.20675,23.092326 31.405125,23.5669324 31.405125,24.0639788 C31.405125,24.5391163 31.2358524,24.9469962 30.9375654,25.2943985 L30.9375654,25.2943985 L23.34,32.8806626 C22.9745625,33.2451259 22.495125,33.4273576 22.0156406,33.4273576 C21.5359573,33.4273576 21.0563437,33.2448454 20.691,32.8806626 C20.3255625,32.5160123 20.1428438,32.0377594 20.1428438,31.5595532 C20.1428438,31.1359846 20.2866104,30.7127198 20.5727861,30.3681522 L20.5727861,30.3681522 L25.0122939,25.9324845 L1.873125,25.9324845 C1.35602588,25.9324845 0.88776562,25.7232522 0.548769647,25.3850923 C0.209739741,25.0468984 0,24.5797511 0,24.0639788 C0,23.5482324 0.20971875,23.0811994 0.54871875,22.7431031 C0.848967247,22.443655 1.25069337,22.2458178 1.69761492,22.2040016 L1.69761492,22.2040016 L25.0098792,22.1965993 L20.691,17.8896073 C20.3255625,17.524957 20.1428438,17.0467041 20.1428438,16.5684979 C20.1428438,16.0902918 20.3255625,15.6121323 20.691,15.247669 C21.056625,14.8830187 21.5361563,14.7006935 22.0156406,14.7006935 Z" id="arrow" fill="#000000"></path>
    </g>
</svg>