<svg xmlns="http://www.w3.org/2000/svg" width="45px" height="54px" viewBox="0 0 45 54"><path fill="#ffb448" d="M40.48,51.05H10.92A4.44,4.44,0,0,1,6.4,46.7V4.35A4.44,4.44,0,0,1,10.92,0h22.3L45,11.58V46.7A4.44,4.44,0,0,1,40.48,51.05Z"></path><g fill="#2b3954"><path d="M27.23,3H5.41A5.42,5.42,0,0,0,0,8.42V48.59A5.42,5.42,0,0,0,5.41,54h27a5.41,5.41,0,0,0,5.41-5.41V13.78Zm8,11.82v1.52H25.12V5.59h1ZM32.37,51.42h-27a2.83,2.83,0,0,1-2.83-2.83V8.42A2.83,2.83,0,0,1,5.41,5.59H22.54v12a1.29,1.29,0,0,0,1.29,1.29H35.21V48.59A2.84,2.84,0,0,1,32.37,51.42Z"></path><path d="M27.41,28.59h-17a1.29,1.29,0,0,1,0-2.58h17a1.29,1.29,0,0,1,0,2.58Zm1.29,4.89a1.29,1.29,0,0,0-1.29-1.29h-17a1.29,1.29,0,0,0,0,2.58h17A1.29,1.29,0,0,0,28.7,33.48Zm0,6.19a1.29,1.29,0,0,0-1.29-1.29h-17a1.29,1.29,0,1,0,0,2.57h17A1.28,1.28,0,0,0,28.7,39.67Z"></path></g></svg>