<?xml version="1.0" encoding="UTF-8"?>
<svg width="43px" height="43px" viewBox="0 0 43 43" version="1.1" xmlns="http://www.w3.org/2000/svg" xmlns:xlink="http://www.w3.org/1999/xlink">
    <title>edit</title>
    <g id="icons" stroke="none" stroke-width="1" fill="none" fill-rule="evenodd">
        <g id="edit" transform="translate(2.100000, 2.190000)" stroke="#0B1823" stroke-width="3">
            <path d="M28.83,-8.52651283e-14 C27.2320236,0.0146170509 25.7059,0.666099065 24.59,1.81 L0.71,25.63 C0.339256934,25.9984373 0.127479089,26.4973715 0.12,27.02 L2.20268248e-13,35.68 C2.20268248e-13,36.7845695 0.8954305,37.68 2,37.68 L2,37.68 L10.6,37.52 C11.1191479,37.5099296 11.6140295,37.2983498 11.98,36.93 L35.9,13.07 C37.0266623,11.9445905 37.6597199,10.4174555 37.6597199,8.825 C37.6597199,7.23254451 37.0266623,5.70540954 35.9,4.58 L33.07,1.81 C31.9458611,0.684460101 30.4207628,0.0514004163 28.83,0.05 L28.83,-8.52651283e-14 Z" id="Path"></path>
            <line x1="20.83" y1="5.96" x2="31.74" y2="16.25" id="Path" stroke-linecap="round" stroke-linejoin="round"></line>
        </g>
    </g>
</svg>