<svg class="mt-1" xmlns="http://www.w3.org/2000/svg" width="41.15px" height="44.12px" viewBox="0 0 41.15 44.12"><path fill="#ffb448" d="M40.8,30.63l-12.32-15a12.81,12.81,0,0,0,.19-2.25,13.4,13.4,0,1,0-8.2,12.37l-.46.55a16.88,16.88,0,0,1-3.26,1.22L19.51,30a1.38,1.38,0,0,0,.57.31l2.7.8v3.1a1.48,1.48,0,0,0,.37,1l5.36,6.26a1.51,1.51,0,0,0,1.16.53h8.94c.84,0,2-.68,2-1.52l.51-8.82A1.56,1.56,0,0,0,40.8,30.63Z"></path><g fill="#2b3954"><path d="M37.53,31.79,26.36,18.38l0,0a12.8,12.8,0,0,0,.26-2.57A13.29,13.29,0,0,0,0,15.79c0,.21,0,.36,0,.49a5,5,0,0,0,.12,1.45,1.52,1.52,0,0,0,1.81,1.18,1.51,1.51,0,0,0,1.18-1.8,2.35,2.35,0,0,1-.06-.72c0-.15,0-.34,0-.6A10.24,10.24,0,1,1,13.31,26a9.59,9.59,0,0,1-7.09-2.85,1.52,1.52,0,1,0-2.17,2.14,12.67,12.67,0,0,0,9.26,3.76h.53a1.59,1.59,0,0,0,.29.35l3.13,2.71a1.59,1.59,0,0,0,.57.31l2.7.8v3.1a1.5,1.5,0,0,0,.37,1l5.36,6.26a1.53,1.53,0,0,0,1.16.53h8.94a1.53,1.53,0,0,0,1.53-1.52V32.76A1.51,1.51,0,0,0,37.53,31.79Zm-2.7,9.28H28.12l-4.53-5.3V32.09a1.53,1.53,0,0,0-1.1-1.46L19,29.6l-1.43-1.23a13.34,13.34,0,0,0,7.6-6.63l9.65,11.58Z"></path><circle cx="30.25" cy="35.3" r="2.46"></circle></g></svg>