<?xml version="1.0" encoding="UTF-8"?>
<svg width="46px" height="46px" viewBox="0 0 46 46" version="1.1" xmlns="http://www.w3.org/2000/svg" xmlns:xlink="http://www.w3.org/1999/xlink">
    <title>QR</title>
    <g id="icons" stroke="none" stroke-width="1" fill="none" fill-rule="evenodd">
        <path d="M9.86097818,30.7792198 C11.3445089,30.7792198 12.6846843,31.3782735 13.6541988,32.3473867 C14.566933,33.2597432 15.1514643,34.5003905 15.2170744,35.8794876 L15.2232487,36.1396445 L15.2232487,40.6395753 C15.2232487,42.1229474 14.6238635,43.46257 13.654376,44.4316563 C12.7416164,45.3440381 11.5004553,45.9282548 10.121167,45.9938292 L9.86097818,46 L5.36380641,46 C3.88027571,46 2.54010024,45.4009463 1.5705858,44.4318331 C0.657851549,43.5194766 0.0733202845,42.2788293 0.00771015041,40.8997321 L0.00153591932,40.6395753 L0.00153591932,36.1396445 C0.00153591932,34.6562724 0.600921097,33.3166498 1.5704086,32.3475635 C2.48316821,31.4351816 3.72432925,30.850965 5.10361761,30.7853906 L5.36380641,30.7792198 L9.86097818,30.7792198 Z M9.86097818,34.298644 L5.36380641,34.298644 L5.19748717,34.3062868 C4.75905373,34.3467348 4.36363168,34.5452148 4.06726578,34.8415601 C3.7336907,35.175112 3.52415121,35.6340496 3.52415121,36.1381087 L3.52415121,36.1381087 L3.52415121,40.6349679 L3.53179437,40.801265 C3.57224444,41.2396397 3.7707334,41.6350047 4.06707904,41.9313297 C4.40067693,42.2649045 4.85968098,42.4744325 5.36380641,42.4744325 L5.36380641,42.4744325 L9.86097818,42.4744325 L10.0272974,42.4667898 C10.4657309,42.4263417 10.8611529,42.2278618 11.1575188,41.9315165 C11.4910939,41.5979646 11.7006334,41.139027 11.7006334,40.6349679 L11.7006334,40.6349679 L11.7006334,36.1381087 L11.6929902,35.9718115 C11.6525401,35.5334369 11.4540512,35.1380718 11.1577056,34.8417468 C10.8241077,34.5081721 10.3651036,34.298644 9.86097818,34.298644 L9.86097818,34.298644 Z M28.7239795,38.8760237 L28.7239795,42.3985195 L25.1237846,42.3985195 L25.1237846,45.9984642 L21.5996334,45.9984642 L21.5996334,38.8760237 L28.7239795,38.8760237 Z M35.998877,39.1460254 L42.401341,39.1481637 L42.401341,42.6703583 L39.5214923,42.6703583 L39.5214923,45.9984642 L35.998877,45.9984642 L35.998877,39.1460254 Z M32.2304833,42.4744325 L32.2304833,45.9969284 L28.707868,45.9969284 L28.707868,42.4744325 L32.2304833,42.4744325 Z M35.9212974,35.546382 L35.9212974,39.0688779 L32.3986821,39.0688779 L32.3986821,35.546382 L35.9212974,35.546382 Z M46,31.9449015 L46,39.067342 L42.4773847,39.067342 L42.4773847,31.9449015 L46,31.9449015 Z M21.5235897,32.0370503 L21.5235897,38.7985748 L17.9994385,38.7985748 L17.9994385,32.0370503 L21.5235897,32.0370503 Z M32.3211025,31.9479732 L32.3211025,35.470469 L25.1982924,35.470469 L25.1982924,31.9479732 L32.3211025,31.9479732 Z M39.5214923,31.9449015 L39.5214923,35.4673974 L35.998877,35.4673974 L35.998877,31.9449015 L39.5214923,31.9449015 Z M25.1237846,28.4386414 L25.1237846,31.9611373 L21.5996334,31.9611373 L21.5996334,28.4386414 L25.1237846,28.4386414 Z M3.52415121,21.329365 L3.52415121,28.4518055 L0,28.4518055 L0,21.329365 L3.52415121,21.329365 Z M21.5235897,21.329365 L21.5235897,28.4518055 L17.9994385,28.4518055 L17.9994385,21.329365 L21.5235897,21.329365 Z M32.3211025,24.9293097 L32.3211025,28.4518055 L28.7984872,28.4518055 L28.7984872,24.9293097 L32.3211025,24.9293097 Z M14.2341166,24.9262381 L14.2341166,28.4487339 L10.7099654,28.4487339 L10.7099654,24.9262381 L14.2341166,24.9262381 Z M46,21.2387521 L46,28.358121 L35.9973411,28.358121 L35.9973411,24.8356251 L42.4773847,24.8356251 L42.4773847,21.2387521 L46,21.2387521 Z M10.7230051,21.3262934 L10.7230051,24.850325 L7.20038977,24.850325 L7.20038977,21.3262934 L10.7230051,21.3262934 Z M35.9212974,21.3262934 L35.9212974,24.850325 L32.3986821,24.850325 L32.3986821,21.3262934 L35.9212974,21.3262934 Z M28.7209077,17.7263487 L28.7209077,24.8487892 L25.1982924,24.8487892 L25.1982924,17.7263487 L28.7209077,17.7263487 Z M7.12281017,17.7263487 L7.12281017,21.2503804 L3.60019489,21.2503804 L3.60019489,17.7263487 L7.12281017,17.7263487 Z M17.9218589,17.7263487 L17.9218589,21.2503804 L10.7990487,21.2503804 L10.7990487,17.7263487 L17.9218589,17.7263487 Z M42.401341,17.7263487 L42.401341,21.2503804 L35.9082578,21.2503804 L35.9082578,17.7263487 L42.401341,17.7263487 Z M21.5996334,10.5271888 L25.1222487,10.5303366 L25.1222487,17.6519715 L17.9994385,17.6519715 L17.9994385,14.1279399 L21.5996334,14.1279399 L21.5996334,10.5271888 Z M9.86097818,0 C11.34372,0 12.6840906,0.599469952 13.6539009,1.56921277 C14.5666848,2.48193322 15.1514361,3.72288842 15.217072,5.10183698 L15.2232487,5.3619605 L15.2232487,9.85881971 C15.2232487,11.3414902 14.6237338,12.681802 13.6539009,13.6515674 C12.7411383,14.5642666 11.5001285,15.1489731 10.1211142,15.214604 L9.86097818,15.2207802 L5.36380641,15.2207802 C3.88106456,15.2207802 2.54069394,14.6213103 1.57088372,13.6515674 C0.658099829,12.738847 0.073348463,11.4978918 0.00771260643,10.1189432 L0.00153591932,9.85881971 L0.00153591932,5.3619605 C0.00153591932,3.87928999 0.601050836,2.53897825 1.57088372,1.56921277 C2.48364628,0.656513647 3.72465612,0.0718070977 5.10367043,0.00617622033 L5.36380641,0 L9.86097818,0 Z M9.86097818,3.52403165 L5.36380641,3.52403165 L5.19748717,3.53167442 C4.75905373,3.57212249 4.36363168,3.77060241 4.06726578,4.06694771 C3.7336907,4.40049961 3.52415121,4.85943722 3.52415121,5.36349631 L3.52415121,5.36349631 L3.52415121,9.86035553 L3.53179437,10.0266527 C3.57224444,10.4650273 3.7707334,10.8603924 4.06707904,11.1567174 C4.40067693,11.4902921 4.85968098,11.6998202 5.36380641,11.6998202 L5.36380641,11.6998202 L9.86097818,11.6998202 L10.0272974,11.6921774 C10.4657309,11.6517294 10.8611529,11.4532494 11.1575188,11.1569041 C11.4910939,10.8233522 11.7006334,10.3644146 11.7006334,9.86035553 L11.7006334,9.86035553 L11.7006334,5.36349631 L11.6929902,5.19719917 C11.6525401,4.75882452 11.4540512,4.36345948 11.1577056,4.06713444 C10.8241077,3.73355974 10.3651036,3.52403165 9.86097818,3.52403165 L9.86097818,3.52403165 Z M40.6377295,0 C42.1204714,0 43.460842,0.599469952 44.4306522,1.56921277 C45.3434361,2.48193322 45.9281875,3.72288842 45.9938233,5.10183698 L46,5.3619605 L46,9.85881971 C46,11.3414902 45.4004851,12.681802 44.4306522,13.6515674 C43.5178896,14.5642666 42.2768798,15.1489731 40.8978655,15.214604 L40.6377295,15.2207802 L36.1405577,15.2207802 C34.6578159,15.2207802 33.3174453,14.6213103 32.3476351,13.6515674 C31.4348512,12.738847 30.8500998,11.4978918 30.7844639,10.1189432 L30.7782873,9.85881971 L30.7782873,5.3619605 C30.7782873,3.87928999 31.3778022,2.53897825 32.3476351,1.56921277 C33.2603976,0.656513647 34.5014074,0.0718070977 35.8804218,0.00617622033 L36.1405577,0 L40.6377295,0 Z M40.6377295,3.52403165 L36.1405577,3.52403165 L35.9742385,3.53167442 C35.5358051,3.57212249 35.140383,3.77060241 34.8440171,4.06694771 C34.510442,4.40049961 34.3009025,4.85943722 34.3009025,5.36349631 L34.3009025,5.36349631 L34.3009025,9.86035553 L34.3085457,10.0266527 C34.3489958,10.4650273 34.5474847,10.8603924 34.8438304,11.1567174 C35.1774283,11.4902921 35.6364323,11.6998202 36.1405577,11.6998202 L36.1405577,11.6998202 L40.6377295,11.6998202 L40.8040487,11.6921774 C41.2424822,11.6517294 41.6379042,11.4532494 41.9342701,11.1569041 C42.2678452,10.8233522 42.4773847,10.3644146 42.4773847,9.86035553 L42.4773847,9.86035553 L42.4773847,5.36349631 L42.4697416,5.19719917 C42.4292915,4.75882452 42.2308025,4.36345948 41.9344569,4.06713444 C41.600859,3.73355974 41.1418549,3.52403165 40.6377295,3.52403165 L40.6377295,3.52403165 Z M21.5235897,3.59994467 L21.5235897,10.4551538 L17.9994385,10.4551538 L17.9994385,3.59994467 L21.5235897,3.59994467 Z M28.7209077,6.92805052 L28.7209077,10.4520822 L25.1982924,10.4520822 L25.1982924,6.92805052 L28.7209077,6.92805052 Z M25.1237846,0 L25.1237846,3.52249584 L21.5996334,3.52249584 L21.5996334,0 L25.1237846,0 Z" id="QR" fill="#000000" fill-rule="nonzero"></path>
    </g>
</svg>