<svg id="Component_1_1" data-name="Component 1 – 1" xmlns="http://www.w3.org/2000/svg" width="15.934" height="16" viewBox="0 0 15.934 16">
  <path id="Path_1" data-name="Path 1" d="M6.813,16.57a.621.621,0,1,1,1.24,0v3.261a1.674,1.674,0,0,0,.488,1.18h0a1.659,1.659,0,0,0,1.175.491H19.8a1.637,1.637,0,0,0,1.165-.488,1.712,1.712,0,0,0,.5-1.19l.045-3.216a.618.618,0,1,1,1.235.015L22.7,19.838a2.963,2.963,0,0,1-.862,2.055,2.874,2.874,0,0,1-2.041.851H9.718a2.9,2.9,0,0,1-2.053-.856v0a2.908,2.908,0,0,1-.852-2.055V16.57Zm8.484.458.01-.01,2.476-2.484a.621.621,0,0,0-.876-.879l-1.43,1.434V7.409a.621.621,0,1,0-1.24,0v7.679l-1.43-1.434a.621.621,0,1,0-.876.879l2.476,2.483a.617.617,0,0,0,.888.012Z" transform="translate(-6.811 -6.745)" fill-rule="evenodd"/>
</svg>
