<svg id="Component_2_1" data-name="Component 2 – 1" xmlns="http://www.w3.org/2000/svg" width="16.003" height="16" viewBox="0 0 16.003 16">
  <path id="Path_2" data-name="Path 2" d="M7.2,17a.624.624,0,1,1,1.245,0v3.275a1.68,1.68,0,0,0,.491,1.185h0a1.668,1.668,0,0,0,1.181.493H20.24a1.647,1.647,0,0,0,1.17-.489,1.725,1.725,0,0,0,.5-1.195l.045-3.23a.621.621,0,1,1,1.241.014l-.045,3.23a2.976,2.976,0,0,1-.866,2.064,2.886,2.886,0,0,1-2.05.855H10.12a2.909,2.909,0,0,1-2.062-.859v0A2.92,2.92,0,0,1,7.2,20.274V17Zm7.538-9.616-.011.012L12.24,9.888a.623.623,0,1,0,.88.883l1.436-1.439v7.712a.624.624,0,1,0,1.246,0V9.332l1.435,1.44a.624.624,0,0,0,.88-.884L15.63,7.395a.62.62,0,0,0-.892-.012Z" transform="translate(-7.198 -7.2)" fill-rule="evenodd"/>
</svg>
