<?xml version="1.0" encoding="UTF-8"?>
<svg width="48px" height="48px" viewBox="0 0 48 48" version="1.1" xmlns="http://www.w3.org/2000/svg" xmlns:xlink="http://www.w3.org/1999/xlink">
    <title>settings</title>
    <g id="icons" stroke="none" stroke-width="1" fill="none" fill-rule="evenodd">
        <path d="M31.6298417,24.0000488 C31.6298417,28.2222563 28.2056291,31.6450318 23.9816557,31.6450318 C19.7576822,31.6450318 16.3334752,28.2222563 16.3334752,24.0000488 C16.3334752,19.7778412 19.7576822,16.3550602 23.9816557,16.3550602 C26.0108255,16.3526293 27.9575867,17.1572981 29.3924274,18.5915391 C30.8272682,20.02578 31.6322736,21.9717273 31.6298417,24.0000488 L31.6298417,24.0000488 Z M40.6352478,28.3267058 C40.2296852,29.8621655 39.6124039,31.3337658 38.8011517,32.6991962 C38.5656497,33.089291 38.6024243,33.5855404 38.8928565,33.9366934 L41.1029422,36.5950209 C41.4538146,37.0251229 41.4221177,37.6508743 41.0295784,38.043351 L38.0216609,41.0591776 C37.6266031,41.4488023 37.0007055,41.4765203 36.572725,41.1233441 L33.9132858,38.9141824 C33.556044,38.6278587 33.0579732,38.5949119 32.6661004,38.8316826 C31.3048174,39.6454872 29.8352084,40.2627118 28.3009519,40.6650118 C27.8650445,40.7718163 27.5403376,41.136503 27.4847791,41.5816765 L27.1638123,45.0100022 C27.121545,45.5594711 26.6695569,45.9874914 26.1183776,46 L21.8541043,46 C21.2990938,45.9972878 20.8377593,45.5719243 20.7903285,45.0191688 L20.4693617,41.5908431 C20.4089276,41.1478963 20.0863182,40.7855654 19.653189,40.6741785 C18.118374,40.273525 16.6485379,39.656205 15.2880404,38.8408492 C14.8961677,38.6040785 14.3980968,38.6370253 14.0408551,38.923349 L11.3814158,41.1325108 C10.9534354,41.485687 10.3275377,41.4579689 9.93247996,41.0683443 L6.92456244,38.0066844 C6.52780454,37.6160902 6.49593902,36.9870094 6.8511986,36.5583543 L9.06128434,33.9000268 C9.35153254,33.5479393 9.38474146,33.0500137 9.14381866,32.6625296 C8.33591541,31.2954161 7.71883362,29.8242913 7.30972261,28.2900393 C7.20287351,27.8543142 6.8380342,27.5297429 6.39267459,27.4742077 L2.98125595,27.1533751 C2.42476454,27.1056608 1.99797106,26.6391752 2.00000726,26.0808775 L2.00000726,21.8275536 C1.99797106,21.2692559 2.42476454,20.8027703 2.98125595,20.755056 L6.44769747,20.4342233 C6.8968051,20.3799641 7.26361953,20.0499691 7.3647455,19.6092252 C7.77022876,18.0882117 8.38763694,16.6317376 9.19884154,15.2825681 C9.44131632,14.892241 9.4081247,14.3908885 9.11630722,14.0359042 L6.8511986,11.3500768 C6.49787471,10.9222753 6.52560435,10.2966393 6.91539196,9.9017467 L9.93247996,6.8950867 C10.3251208,6.50271146 10.9511339,6.47102784 11.3814158,6.82175352 L14.0683665,9.05841523 C14.4234993,9.35011072 14.9250615,9.38328846 15.3155519,9.14091505 C16.669859,8.35012965 18.1262446,7.74869642 19.6440185,7.35341901 C20.0813545,7.24899433 20.4071632,6.88307013 20.4601913,6.43675438 L20.7903285,2.95342877 C20.8469164,2.40949881 21.3070203,1.99716435 21.8541043,2.0000483 L26.127548,2.0000483 C26.66222,1.99499236 27.1175969,2.3873945 27.1913237,2.91676218 L27.521461,6.40008779 C27.5744891,6.84640354 27.9002978,7.21232774 28.3376338,7.31675243 C29.8548237,7.71376997 31.3109783,8.31510773 32.6661004,9.10424846 C33.0565908,9.34662187 33.558153,9.31344413 33.9132858,9.02174865 L36.6002365,6.78508694 C37.0305184,6.43436126 37.6565315,6.46604488 38.0491723,6.85842011 L41.0570898,9.86508011 C41.4538478,10.2556743 41.4857133,10.8847551 41.1304537,11.3134102 L38.902027,13.9992376 C38.6102095,14.3542219 38.5770179,14.8555744 38.8194927,15.2459015 C39.6306973,16.595071 40.2481055,18.0515452 40.6535887,19.5725586 C40.7547147,20.0133025 41.1215291,20.3432975 41.5706367,20.3975568 L45.0279078,20.7183894 C45.5807674,20.7705716 46.0024379,21.2358057 45.9999894,21.790887 L45.9999894,26.0442109 C46.0024379,26.5992922 45.5807674,27.0645263 45.0279078,27.1167085 L41.5798072,27.4375412 C41.1333048,27.490547 40.7672276,27.8162196 40.6627592,28.2533727 L40.6352478,28.3267058 Z" id="settings" stroke="#0B1823" stroke-width="2.75114407"></path>
    </g>
</svg>