<?xml version="1.0" encoding="UTF-8"?>
<svg width="52px" height="53px" viewBox="0 0 52 53" version="1.1" xmlns="http://www.w3.org/2000/svg" xmlns:xlink="http://www.w3.org/1999/xlink">
    <title>voting</title>
    <g id="icons" stroke="none" stroke-width="1" fill="none" fill-rule="evenodd" stroke-linecap="round" stroke-linejoin="round">
        <path d="M31.2643344,19.1497802 L31.2643344,9.34990578 C31.2643344,5.29066491 27.9888122,2 23.9482508,2 L14.1934727,24.0497174 L14.1934727,50.9996896 L41.701947,50.9996896 C44.1340247,51.0269937 46.2146565,49.2502808 46.5793361,46.8344253 L49.9447345,24.7847079 C50.1594763,23.3633717 49.7420721,21.9190012 48.8030804,20.8341687 C47.8640887,19.7493362 46.4982536,19.133501 45.0673455,19.1497802 L31.2643344,19.1497802 Z M14.1934727,50.9993719 L6.87738907,50.9993719 C4.18368147,50.9993719 2,48.8055953 2,46.0994347 L2,28.9496545 C2,26.243494 4.18368147,24.0497174 6.87738907,24.0497174 L14.1934727,24.0497174" id="voting" stroke="#000000" stroke-width="3"></path>
    </g>
</svg>