<?xml version="1.0" encoding="UTF-8"?>
<svg width="54px" height="56px" viewBox="0 0 54 56" version="1.1" xmlns="http://www.w3.org/2000/svg" xmlns:xlink="http://www.w3.org/1999/xlink">
    <title>Shape</title>
    <g id="Page-1" stroke="none" stroke-width="1" fill="none" fill-rule="evenodd">
        <path d="M9.9209,12.0264 C9.9209,11.1979729 10.5924729,10.5264 11.4209,10.5264 L36.36,10.5264 C37.1884271,10.5264 37.86,11.1979729 37.86,12.0264 C37.86,12.8548271 37.1884271,13.5264 36.36,13.5264 L11.4209,13.5264 C10.5924729,13.5264 9.9209,12.8548271 9.9209,12.0264 Z M11.4209,22.3223 L36.36,22.3223 C37.1884271,22.3223 37.86,21.6507271 37.86,20.8223 C37.86,19.9938729 37.1884271,19.3223 36.36,19.3223 L11.4209,19.3223 C10.5924729,19.3223 9.9209,19.9938729 9.9209,20.8223 C9.9209,21.6507271 10.5924729,22.3223 11.4209,22.3223 Z M11.4209,31.1172 L36.36,31.1172 C37.1884271,31.1172 37.86,30.4456271 37.86,29.6172 C37.86,28.7887729 37.1884271,28.1172 36.36,28.1172 L11.4209,28.1172 C10.5924729,28.1172 9.9209,28.7887729 9.9209,29.6172 C9.9209,30.4456271 10.5924729,31.1172 11.4209,31.1172 Z M29.3721,36.9121 L11.4209,36.9121 C10.5924729,36.9121 9.9209,37.5836729 9.9209,38.4121 C9.9209,39.2405271 10.5924729,39.9121 11.4209,39.9121 L29.3721,39.9121 C30.2005271,39.9121 30.8721,39.2405271 30.8721,38.4121 C30.8721,37.5836729 30.2005271,36.9121 29.3721,36.9121 Z M53.6094031,44.5221 C53.6131232,49.4949131 50.2626703,53.8446955 45.4536425,55.1104505 C40.6446146,56.3762055 35.5868896,54.2394885 33.142,49.9092 L8.8906,49.9092 C4.19846402,49.9036896 0.396110441,46.101336 0.3906,41.4092 L0.3906,9.0292 C0.396110441,4.33706402 4.19846402,0.534710441 8.8906,0.5292 L38.8906,0.5292 C43.582736,0.534710441 47.3850896,4.33706402 47.3906,9.0292 L47.3906,34.6642 C51.1854879,36.4824946 53.602784,40.3144926 53.6094031,44.5225 L53.6094031,44.5221 Z M31.9839,46.9093 C31.1649819,43.3660828 32.1697907,39.6480605 34.6619572,36.9997757 C37.1541238,34.3514909 40.8043168,33.1229055 44.3906,33.7253 L44.3906,9.0293 C44.3868533,5.99328715 41.9266128,3.53304667 38.8906,3.5293 L8.8906,3.5293 C5.85454153,3.53293673 3.39423673,5.99324153 3.3906,9.0293 L3.3906,41.4093 C3.39423673,44.4453585 5.85454153,46.9056633 8.8906,46.9093 L31.9839,46.9093 Z M50.6094,44.5225 C50.6092382,41.3079059 48.6726622,38.4099407 45.7026987,37.1799276 C42.7327352,35.9499145 39.3142711,36.6300849 37.0413385,38.9032749 C34.7684059,41.176465 34.0886226,44.595006 35.318972,47.5648302 C36.5493215,50.5346544 39.4475059,52.4709022 42.6621,52.4707 C47.0494762,52.4655193 50.6047161,48.9098767 50.6094,44.5225 L50.6094,44.5225 Z M46.4814,43.0225 L44.1621,43.0225 L44.1621,40.1325001 C44.1621,39.3040729 43.4905271,38.6325001 42.6621,38.6325001 C41.8336729,38.6325001 41.1621,39.3040729 41.1621,40.1325001 L41.1621,44.5225 C41.1621,45.3509271 41.8336729,46.0225 42.6621,46.0225 L46.4814,46.0225 C47.3098271,46.0225 47.9814,45.3509271 47.9814,44.5225 C47.9814,43.6940729 47.3098271,43.0225 46.4814,43.0225 L46.4814,43.0225 Z" id="Shape" fill="#000000" fill-rule="nonzero"></path>
    </g>
</svg>