<?xml version="1.0" encoding="UTF-8"?>
<svg width="52px" height="42px" viewBox="0 0 52 42" version="1.1" xmlns="http://www.w3.org/2000/svg" xmlns:xlink="http://www.w3.org/1999/xlink">
    <title>Combined Shape</title>
    <g id="icons" stroke="none" stroke-width="1" fill="none" fill-rule="evenodd" stroke-linecap="round" stroke-linejoin="round">
        <path d="M42.6341463,2 C46.5944321,2 49.804878,5.21044594 49.804878,9.17073171 L49.804878,9.17073171 L49.804878,33.0731707 C49.804878,37.0334565 46.5944321,40.2439024 42.6341463,40.2439024 L42.6341463,40.2439024 L9.17073171,40.2439024 C5.21044594,40.2439024 2,37.0334565 2,33.0731707 L2,33.0731707 L2,9.17073171 C2,5.21044594 5.21044594,2 9.17073171,2 L9.17073171,2 Z M41.3902439,19 C40.0701486,19 39,20.0701486 39,21.3902439 C39,22.7103392 40.0701486,23.7804878 41.3902439,23.7804878 C42.7103392,23.7804878 43.7804878,22.7103392 43.7804878,21.3902439 C43.7804878,20.0701486 42.7103392,19 41.3902439,19 Z" id="Combined-Shape" stroke="#0B1823" stroke-width="3"></path>
    </g>
</svg>