<?xml version="1.0" encoding="UTF-8"?>
<svg width="1024px" height="1024px" viewBox="0 0 1024 1024" version="1.1" xmlns="http://www.w3.org/2000/svg" xmlns:xlink="http://www.w3.org/1999/xlink">
    <title>funiswap_black</title>
    <defs>
        <polygon id="path-1" points="0 0 1024 0 1024 1024 0 1024"></polygon>
    </defs>
    <g id="funiswap_black" stroke="none" stroke-width="1" fill="none" fill-rule="evenodd">
        <g id="Group-24">
            <g id="Group-23">
                <g id="Group-4">
                    <mask id="mask-2" fill="white">
                        <use xlink:href="#path-1"></use>
                    </mask>
                    <use id="Clip-3" fill="#FFFFFF" xlink:href="#path-1"></use>
                </g>
                <path d="M653.5,348.75 C654.152,349.534 675.412017,354.26254 714.25,385 C752.63,415.375 752.63,433.75 752.63,451.524 L753.338,457.344 L749.934,452.056 C744.058,442.956 738.166,436.76 730.618,431.764 C717.002,422.76 702.618,419.692 664.498,417.684 C630.078,415.872 641.034917,416.497 623.375,415.375 C598.66951,413.805369 651.444,346.282 653.5,348.75 Z" id="Fill-5" fill="#000000"></path>
                <path d="M376.616,269.26 L377.32,260.964 L381.184,261.672 C388.444,262.996 400.964,267.652 406.824,271.212 C422.908,280.98 422.001752,291.959358 429.085752,324.983358 C431.161752,334.651358 441.752,347.484 443.004,351.192 C445.02,357.156 452.64,371.088 458.836,380.136 C463.3,386.656 460.336,389.744 450.472,388.852 C435.404,387.492 414.996,373.408 401.832,355.284 C384.848,331.904 374.34,296.056 376.616,269.26 Z" id="Fill-9" fill="#000000"></path>
                <path d="M662.906,529.2936 C583.542,497.3416 555.59,469.6016 555.59,422.7976 C555.59,415.9176 555.826,410.2816 556.118,410.2816 C556.402,410.2816 559.478,412.5496 562.942,415.3336 C579.03,428.2376 597.054,433.7536 646.95,441.0336 C676.306,445.3096 692.822,448.7736 708.066,453.8296 C756.506,469.8896 786.478,502.4976 793.626,546.8976 C795.698,559.8056 794.486,584.0016 791.118,596.7496 C788.458,606.8256 780.342,624.9816 778.194,625.6776 C777.602,625.8736 777.01,623.5816 776.858,620.4736 C776.042,603.8016 767.618,587.5616 753.47,575.4016 C737.374,561.5776 715.758,550.5696 662.906,529.2936" id="Fill-11" fill="#000000"></path>
                <path d="M607.1912,542.5672 C606.1952,536.6512 604.4712,529.0912 603.3592,525.7752 L601.3312,519.7392 L605.0992,523.9672 C610.2992,529.8072 614.4112,537.2792 617.8992,547.2392 C620.5592,554.8392 620.8592,557.0992 620.840083,569.4512 C620.8192,581.5712 620.4872,584.1192 618.0272,590.9592 C614.1552,601.7432 609.3472,609.3912 601.2792,617.5992 C586.7832,632.3552 568.1432,640.5232 541.2472,643.9112 C536.5712,644.4992 522.9432,645.4912 510.9632,646.1192 C480.7712,647.6872 460.8992,650.9312 443.0472,657.1992 C440.4792,658.0992 438.1872,658.6512 437.9552,658.4152 C437.2312,657.6992 449.3872,650.4552 459.4312,645.6192 C473.5872,638.7992 487.6832,635.0712 519.2592,629.8152 C534.8592,627.2152 550.9672,624.0632 555.0592,622.8112 C593.6872,610.9672 613.5472,580.3992 607.1912,542.5672" id="Fill-13" fill="#000000"></path>
                <path d="M643.57,607.1804 C633.026,584.5124 630.61,562.6284 636.382,542.2164 C636.998,540.0364 637.994,538.2484 638.59,538.2484 C639.19,538.2484 641.678,539.5964 644.126,541.2404 C648.982,544.5084 658.726,550.0204 684.69,564.1764 C717.086,581.8404 735.558,595.5164 748.126,611.1444 C759.126,624.8324 765.934,640.4164 769.206,659.4244 C771.062,670.1924 769.978,696.0964 767.214,706.9364 C758.502,741.1244 738.258,767.9724 709.382,783.6444 C705.154,785.9324 701.35,787.8204 700.946,787.832412 C700.53,787.8404 702.07,783.9204 704.366,779.1204 C714.082,758.8124 715.186,739.0604 707.842,717.0764 C703.346,703.6164 694.178,687.1884 675.666,659.4284 C654.146,627.1524 648.866,618.5644 643.57,607.1804" id="Fill-15" fill="#000000"></path>
                <path d="M345.4704,729.4852 C374.9224,704.6172 411.5664,686.9532 444.9464,681.5292 C459.3304,679.1932 483.2984,680.1212 496.6184,683.5292 C517.9704,688.9932 537.0704,701.2332 547.0064,715.8172 C556.7144,730.0692 560.8784,742.4892 565.2144,770.1212 C566.9304,781.0212 568.7904,791.9692 569.3504,794.4412 C572.6104,808.7652 578.9464,820.2172 586.8024,825.9652 C599.2744,835.0892 620.7504,835.6612 641.8784,827.4172 C645.4664,826.0212 648.5784,825.0532 648.7984,825.2692 C649.5624,826.0332 638.9224,833.1532 631.4184,836.9012 C621.3184,841.9492 613.2904,843.9012 602.6184,843.9012 C583.2664,843.9012 567.1984,834.0572 553.7944,813.9812 C551.1544,810.0332 545.2264,798.2012 540.6184,787.6892 C526.4664,755.4012 519.4704,745.5692 503.0384,734.8092 C488.7344,725.4412 470.2904,723.7612 456.4144,730.5692 C438.1864,739.5052 433.1024,762.7972 446.1584,777.5612 C451.3464,783.4212 461.0224,788.4852 468.9344,789.4692 C483.7344,791.3132 496.4544,780.0532 496.4544,765.1052 C496.4544,755.4012 492.7264,749.8692 483.3344,745.6292 C470.5144,739.8452 456.7304,746.6052 456.7944,758.6532 C456.8224,763.7892 459.0624,767.0172 464.2104,769.3452 C467.5144,770.8412 467.5904,770.9612 464.8944,770.4012 C453.1304,767.9612 450.3744,753.7732 459.8344,744.3612 C471.1904,733.0572 494.6784,738.0452 502.7424,753.4732 C506.1304,759.9532 506.5224,772.8612 503.5704,780.6572 C496.9584,798.0972 477.6824,807.2732 458.1264,802.2852 C444.8144,798.8852 439.3904,795.2052 423.3384,778.6692 C395.4504,749.9332 384.6224,744.3692 344.4064,738.0892 L336.7024,736.8892 L345.4704,729.4852 Z" id="Fill-17" fill="#000000"></path>
                <path d="M257.9764,654.536 C262.2164,647.028 259.9644,637.376 252.8724,632.664 C246.1724,628.208 235.7644,630.304 235.7644,636.112 C235.7644,637.884 236.7404,639.172 238.9524,640.308 C242.6684,642.22 242.9404,644.372 240.0124,648.768 C237.0524,653.224 237.2924,657.136 240.6884,659.796 C246.1644,664.084 253.9164,661.728 257.9764,654.536 M135.1404,85.86 C228.2884,198.916 371.8964,374.936 379.0284,384.792 C384.9164,392.928 382.7004,400.244 372.6164,405.976 C367.0084,409.164 355.4764,412.396 349.7044,412.396 C343.1764,412.396 335.8204,409.252 330.4644,404.168 C326.6764,400.58 311.3964,377.76 276.1204,323.028 C249.1324,281.144 226.5444,246.404 225.9244,245.82 C224.5004,244.476 224.5244,244.52 273.3684,331.916 C304.0404,386.792 314.3924,406.192 314.3924,408.788 C314.3924,414.064 312.9524,416.84 306.4404,424.1 C295.5884,436.208 290.7364,449.812 287.2324,477.968 C283.3084,509.528 272.2684,531.82 241.6724,569.976 C223.7644,592.312 220.8324,596.408 216.3164,605.408 C210.6244,616.748 209.0604,623.096 208.4244,637.412 C207.7524,652.548 209.0604,662.324 213.6844,676.796 C217.7324,689.464 221.9564,697.832 232.7604,714.564 C242.0844,729.004 247.4524,739.732 247.4524,743.932 C247.4524,747.272 248.0884,747.276 262.5364,744.012 C297.1084,736.208 325.1804,722.476 340.9684,705.648 C350.7404,695.232 353.0324,689.484 353.1084,675.208 C353.1564,665.876 352.8284,663.92 350.3044,658.548 C346.1964,649.808 338.7204,642.54 322.2364,631.272 C300.6404,616.508 291.4164,604.624 288.8684,588.28 C286.7804,574.868 289.2044,565.404 301.1484,540.364 C313.5164,514.448 316.5804,503.4 318.6524,477.276 C319.9924,460.4 321.8484,453.74 326.6964,448.4 C331.7524,442.828 336.3084,440.94 348.8244,439.232 C369.2284,436.444 382.2244,431.164 392.9044,421.32 C402.1724,412.784 406.0484,404.556 406.6444,392.172 L407.0964,382.784 L401.9164,376.748 C383.1644,354.884 122.5804,68.672 121.4284,68.672 C121.1804,68.672 127.3524,76.404 135.1404,85.86" id="Fill-19" fill="#000000"></path>
            </g>
            <path d="M428.023754,449.440644 C429.132626,448.853119 430.81988,448.853119 431.928753,449.440644 L431.928753,449.440644 L443.243786,455.435807 C443.911567,455.789625 444.27834,456.316823 444.344105,456.861097 L444.354881,456.861212 L444.354881,486.995857 C444.340431,487.589254 443.970204,488.179307 443.243786,488.564193 L443.243786,488.564193 L431.928753,494.559356 C430.81988,495.146881 429.132626,495.146881 428.023754,494.559356 L428.023754,494.559356 L416.708721,488.564193 C415.9856,488.181054 415.638563,487.587137 415.621372,486.995857 C415.619781,486.941144 415.6195,486.8951 415.620831,486.856344 L415.621372,456.861212 C415.676774,456.310786 416.026898,455.797065 416.708721,455.435807 L416.708721,455.435807 Z M442.573,473.673 L431.928753,479.313369 C430.81988,479.900895 429.132626,479.900895 428.023754,479.313369 L428.023754,479.313369 L417.402,473.686 L417.402,486.937 L428.023754,492.534438 C428.592418,492.839202 429.181546,493.136878 429.759926,493.200793 L429.976253,493.213361 C430.610533,493.215492 431.226301,492.892396 431.850759,492.586548 L431.850759,492.586548 L442.573,486.888 L442.573,473.673 Z M413.781003,486.340756 C413.781003,487.495348 413.914768,488.254213 414.180358,488.788831 C414.400493,489.231949 414.730789,489.570588 415.333888,489.982639 L415.368318,490.006042 C415.500671,490.095554 415.646474,490.189339 415.823952,490.299541 L416.033245,490.428131 L416.675934,490.817202 L415.754145,492.345926 L415.034813,491.910109 L414.913905,491.835645 C414.705915,491.706856 414.533528,491.59621 414.37273,491.48746 C412.653881,490.324983 412.01284,489.057579 412.000191,486.421071 L412,486.340756 L413.781003,486.340756 Z M429.083186,465.59703 C429.001672,465.625218 428.92526,465.657784 428.855534,465.694727 L428.855534,465.694727 L417.540501,471.68989 C417.528627,471.696182 417.517304,471.702412 417.506525,471.708562 L417.506525,471.708562 L417.496946,471.714138 L417.514711,471.724341 L417.540501,471.738385 L428.855534,477.733548 C428.92526,477.770492 429.001672,477.803058 429.083186,477.831246 Z M430.868326,465.596686 L430.868326,477.831589 C430.950213,477.803322 431.026963,477.770642 431.096973,477.733548 L431.096973,477.733548 L442.412005,471.738385 C442.423879,471.732094 442.435203,471.725863 442.445982,471.719713 L442.445982,471.719713 L442.455561,471.714138 L442.437795,471.703935 L442.412005,471.68989 L431.096973,465.694727 C431.026963,465.657634 430.950213,465.624953 430.868326,465.596686 Z M442.573,458.998 L432.423,464.377 L442.573,469.755 L442.573,458.998 Z M417.402,459.011 L417.402,469.742 L427.528,464.377 L417.402,459.011 Z M431.096973,451.020465 C430.508553,450.708697 429.443953,450.708697 428.855534,451.020465 L428.855534,451.020465 L417.540501,457.015628 C417.528627,457.02192 417.517304,457.02815 417.506525,457.0343 L417.506525,457.0343 L417.496946,457.039876 L417.514711,457.050079 L417.540501,457.064123 L428.855534,463.059286 C429.443953,463.371054 430.508553,463.371054 431.096973,463.059286 L431.096973,463.059286 L442.412005,457.064123 C442.423879,457.057832 442.435203,457.051601 442.445982,457.045451 L442.445982,457.045451 L442.455561,457.039876 L442.437795,457.029673 L442.412005,457.015628 Z M444.245855,451.677896 L444.965187,452.113713 L445.086095,452.188177 C445.294085,452.316966 445.466472,452.427612 445.62727,452.536362 C447.346119,453.698839 447.98716,454.966243 447.999809,457.602751 L448,457.683066 L446.218997,457.683066 C446.218997,456.528474 446.085232,455.769609 445.819642,455.234991 C445.599507,454.791873 445.269211,454.453234 444.666112,454.041183 L444.631682,454.01778 C444.499329,453.928268 444.353526,453.834483 444.176048,453.724281 L443.966755,453.595691 L443.324066,453.20662 L444.245855,451.677896 Z" id="Combined-Shape" fill="#000000" fill-rule="nonzero"></path>
        </g>
        <g id="Group" transform="translate(573.543227, 235.796632) rotate(24.000000) translate(-573.543227, -235.796632) translate(392.043227, 61.796632)" fill="#000000" fill-rule="nonzero">
            <path d="M284.808,30.2 C274.136,30.2 263.628,32.472 253.932,36.664 C237.5,14.62 211.312,0.252 181.76,0.252 C152.216,0.252 126.028,14.616 109.592,36.656 C99.884,32.472 89.372,30.2 78.712,30.2 C35.852,30.2 0.984,65.064 0.984,107.928 C0.984,145.592 27.924,177.064 63.54,184.144 L63.54,310.752 C63.54,313.948 65.232,316.904 67.98,318.524 C70.912,320.24 117.992,347.252 184.344,347.252 C218.444,347.252 257.648,340.108 298.552,318.736 C301.524,317.188 303.392,314.108 303.392,310.752 L303.392,183.38 C337.584,174.944 362.528,143.792 362.528,107.928 C362.532,65.064 327.664,30.2 284.808,30.2 Z M303.396,164.66 L303.396,157.852 C303.396,152.876 299.36,148.848 294.384,148.848 C289.416,148.848 285.38,152.88 285.38,157.852 L285.38,305.228 C189.14,352.792 101.92,315.448 81.556,305.316 L81.556,185.544 C95.416,185.048 108.832,180.94 120.52,173.492 C124.712,170.812 125.94,165.248 123.272,161.048 C120.592,156.848 115.02,155.636 110.836,158.296 C101.252,164.408 90.14,167.64 78.72,167.64 C45.792,167.64 19.004,140.852 19.004,107.928 C19.004,75 45.788,48.212 78.72,48.212 C86.116,48.212 93.412,49.64 100.248,52.264 C94.82,63.848 91.692,76.708 91.692,90.32 C91.692,95.292 95.728,99.324 100.7,99.324 C105.668,99.324 109.704,95.288 109.704,90.32 C109.704,76.5 113.684,63.624 120.456,52.644 C120.468,52.62 120.5,52.608 120.516,52.576 C120.524,52.556 120.52,52.54 120.532,52.512 C133.244,31.996 155.9,18.264 181.76,18.264 C221.492,18.264 253.812,50.588 253.812,90.316 C253.812,112.008 244.172,132.332 227.368,146.08 C223.516,149.232 222.952,154.908 226.1,158.756 C227.876,160.932 230.464,162.056 233.08,162.056 C235.084,162.056 237.1,161.392 238.772,160.024 C259.776,142.844 271.832,117.436 271.832,90.316 C271.832,76.704 268.708,63.844 263.28,52.26 C270.108,49.64 277.404,48.208 284.812,48.208 C317.736,48.208 344.52,74.996 344.52,107.924 C344.516,133.948 327.42,156.744 303.396,164.66 Z" id="Shape"></path>
            <path d="M185.488,288.728 C144.988,295.512 112.568,276.708 112.248,276.512 C107.98,273.948 102.46,275.344 99.912,279.608 C97.356,283.872 98.732,289.408 103,291.968 C104.3,292.752 130.624,308.248 167.288,308.248 C174.036,308.248 181.124,307.72 188.488,306.484 C193.384,305.664 196.696,301.008 195.872,296.104 C195.048,291.2 190.376,287.916 185.488,288.728 Z" id="Path"></path>
        </g>
        <polygon id="Triangle" stroke="#000000" stroke-width="8" transform="translate(294.000000, 752.000000) scale(1, -1) rotate(20.000000) translate(-294.000000, -752.000000) " points="294 720 312 784 276 784"></polygon>
        <polygon id="Triangle-Copy" stroke="#000000" stroke-width="8" transform="translate(318.000000, 728.000000) scale(1, -1) rotate(20.000000) translate(-318.000000, -728.000000) " points="318 696 336 760 300 760"></polygon>
        <path d="M453.192897,473.847758 C458.496221,466.288924 456.175623,458.116528 447.158081,452.594468 C429.974304,442.069029 404,450.779083 404,467.054296 C404,475.157113 417.545231,484 429.961692,484 C438.228823,484 449.541739,479.05355 453.192897,473.847758 M418.656487,444.896175 C409.076487,447.836175 399.764487,457.988175 396.880487,468.636175 C395.124487,475.132175 396.120487,486.524175 398.756487,490.040175 C403.012487,495.724175 407.124487,497.220175 418.268487,497.144175 C440.084487,496.992175 459.052487,487.636175 461.256487,475.936175 C463.064487,466.348175 454.732487,453.060175 443.260487,447.228175 C437.340487,444.220175 424.748487,443.024175 418.656487,444.896175" id="Fill-18-Copy" fill="#000000"></path>
    </g>
</svg>